# xmcd
#
# Track frame offsets:
# 150
# 19219
# 36247
# 50436
# 75771
# 90070
# 108076
# 122298
# 139161
# 155821
# 172473
# 187992
# 207671
# 228933
#
# Disc length: 3197 seconds
#
#
# Revision: 0
# Processed by: cddbd v1.5.1PL2 Copyright (c) Steve Scherf et al.
# Submitted via: FreeRIP 2.945 
#
DISCID=ad0c7b0e
DTITLE=Sinhá Moça
DYEAR=1900
DGENRE=
TTITLE0=Leonardo - Sinhá Moça
TTITLE1=Gian e Giovani - Amor Eterno
TTITLE2=Chitãozinho e Xororó - É Amor É Paixão
TTITLE3=Cidade Negra - Negro Rei
TTITLE4=Oswaldo Montenegro - Quando a Gente Ama
TTITLE5=Arleno Farias - Mistérios da Vida
TTITLE6=Fagner - Custe o que Custar
TTITLE7=Fernanda Porto - Você e Eu
TTITLE8=Maria Bethânia - Minha Namorada
TTITLE9=Dori Caymmi - Na Ribeira deste Rio
TTITLE10=Guarabyra - Manhãs Bonitas
TTITLE11=Chico César - Ser um Só
TTITLE12=Batacotó - Esse Negro Não se Enxerga
TTITLE13=Walter Queiroz - Camará
EXTD=
EXTT0=
EXTT1=
EXTT2=
EXTT3=
EXTT4=
EXTT5=
EXTT6=
EXTT7=
EXTT8=
EXTT9=
EXTT10=
EXTT11=
EXTT12=
EXTT13=
PLAYORDER=
